name rise32.9588peak41.5061fall63.4684.mot
datacolumns 19
datarows 36
range 3.93998400000000 3.99831600000000
endheader
time	ground_force1_vx	ground_force1_vy	ground_force1_vz	ground_force1_px	ground_force1_py	ground_force1_pz	ground_force2_vx	ground_force2_vy	ground_force2_vz	ground_force2_px	ground_force2_py	ground_force2_pz	ground_torque1_x	ground_torque1_y	ground_torque1_z	ground_torque2_x	ground_torque2_y	ground_torque2_z	
3.93998400000000	5.76327500000000	730.44121199999995	36.75437100000000	0.19227600000000	0.00000000000000	0.08670700000000	0.00000000000000	0.00000000000000	0.00000000000000	0.00000000000000	0.00000000000000	0.00000000000000	0.00000000000000	14.75572000000000	0.00000000000000	0.00000000000000	0.00000000000000	0.00000000000000	
3.94165900000000	5.46121900000000	731.59596299999998	36.76251800000000	0.19154500000000	0.00000000000000	0.08664500000000	0.00000000000000	0.00000000000000	0.00000000000000	0.00000000000000	0.00000000000000	0.00000000000000	0.00000000000000	14.78731000000000	0.00000000000000	0.00000000000000	0.00000000000000	0.00000000000000	
3.94331900000000	5.15495000000000	732.75311599999998	36.77377300000000	0.19080500000000	0.00000000000000	0.08658300000000	0.00000000000000	0.00000000000000	0.00000000000000	0.00000000000000	0.00000000000000	0.00000000000000	0.00000000000000	14.81999100000000	0.00000000000000	0.00000000000000	0.00000000000000	0.00000000000000	
3.94499000000000	4.84416600000000	733.91139399999997	36.78803100000000	0.19005600000000	0.00000000000000	0.08652100000000	0.00000000000000	0.00000000000000	0.00000000000000	0.00000000000000	0.00000000000000	0.00000000000000	0.00000000000000	14.85372000000000	0.00000000000000	0.00000000000000	0.00000000000000	0.00000000000000	
3.94665400000000	4.52858400000000	735.06960100000003	36.80518200000000	0.18929800000000	0.00000000000000	0.08645900000000	0.00000000000000	0.00000000000000	0.00000000000000	0.00000000000000	0.00000000000000	0.00000000000000	0.00000000000000	14.88845500000000	0.00000000000000	0.00000000000000	0.00000000000000	0.00000000000000	
3.94831800000000	4.20794000000000	736.22662700000001	36.82511500000000	0.18853000000000	0.00000000000000	0.08639700000000	0.00000000000000	0.00000000000000	0.00000000000000	0.00000000000000	0.00000000000000	0.00000000000000	0.00000000000000	14.92415200000000	0.00000000000000	0.00000000000000	0.00000000000000	0.00000000000000	
3.94998400000000	3.88199100000000	737.38144599999998	36.84771300000000	0.18775300000000	0.00000000000000	0.08633500000000	0.00000000000000	0.00000000000000	0.00000000000000	0.00000000000000	0.00000000000000	0.00000000000000	0.00000000000000	14.96076800000000	0.00000000000000	0.00000000000000	0.00000000000000	0.00000000000000	
3.95165600000000	3.55051700000000	738.53312100000005	36.87286200000000	0.18696600000000	0.00000000000000	0.08627300000000	0.00000000000000	0.00000000000000	0.00000000000000	0.00000000000000	0.00000000000000	0.00000000000000	0.00000000000000	14.99825700000000	0.00000000000000	0.00000000000000	0.00000000000000	0.00000000000000	
3.95332200000000	3.21331900000000	739.68080199999997	36.90044200000000	0.18616900000000	0.00000000000000	0.08621200000000	0.00000000000000	0.00000000000000	0.00000000000000	0.00000000000000	0.00000000000000	0.00000000000000	0.00000000000000	15.03657000000000	0.00000000000000	0.00000000000000	0.00000000000000	0.00000000000000	
3.95499000000000	2.87022600000000	740.82372499999997	36.93033200000000	0.18536300000000	0.00000000000000	0.08615000000000	0.00000000000000	0.00000000000000	0.00000000000000	0.00000000000000	0.00000000000000	0.00000000000000	0.00000000000000	15.07565800000000	0.00000000000000	0.00000000000000	0.00000000000000	0.00000000000000	
3.95665600000000	2.52109200000000	741.96121800000003	36.96240700000000	0.18454800000000	0.00000000000000	0.08608800000000	0.00000000000000	0.00000000000000	0.00000000000000	0.00000000000000	0.00000000000000	0.00000000000000	0.00000000000000	15.11547000000000	0.00000000000000	0.00000000000000	0.00000000000000	0.00000000000000	
3.95832400000000	2.16579700000000	743.09269300000005	36.99654300000000	0.18372400000000	0.00000000000000	0.08602700000000	0.00000000000000	0.00000000000000	0.00000000000000	0.00000000000000	0.00000000000000	0.00000000000000	0.00000000000000	15.15595200000000	0.00000000000000	0.00000000000000	0.00000000000000	0.00000000000000	
3.95998200000000	1.80425200000000	744.21765200000004	37.03261100000000	0.18289100000000	0.00000000000000	0.08596500000000	0.00000000000000	0.00000000000000	0.00000000000000	0.00000000000000	0.00000000000000	0.00000000000000	0.00000000000000	15.19704900000000	0.00000000000000	0.00000000000000	0.00000000000000	0.00000000000000	
3.96165400000000	1.43639300000000	745.33567900000003	37.07048400000000	0.18205000000000	0.00000000000000	0.08590300000000	0.00000000000000	0.00000000000000	0.00000000000000	0.00000000000000	0.00000000000000	0.00000000000000	0.00000000000000	15.23870100000000	0.00000000000000	0.00000000000000	0.00000000000000	0.00000000000000	
3.96331600000000	1.06218800000000	746.44644300000004	37.11002900000000	0.18120000000000	0.00000000000000	0.08584100000000	0.00000000000000	0.00000000000000	0.00000000000000	0.00000000000000	0.00000000000000	0.00000000000000	0.00000000000000	15.28084800000000	0.00000000000000	0.00000000000000	0.00000000000000	0.00000000000000	
3.96499000000000	0.68163400000000	747.54969700000004	37.15111500000000	0.18034400000000	0.00000000000000	0.08578000000000	0.00000000000000	0.00000000000000	0.00000000000000	0.00000000000000	0.00000000000000	0.00000000000000	0.00000000000000	15.32342600000000	0.00000000000000	0.00000000000000	0.00000000000000	0.00000000000000	
3.96666500000000	0.29475700000000	748.64526799999999	37.19360800000000	0.17948000000000	0.00000000000000	0.08571800000000	0.00000000000000	0.00000000000000	0.00000000000000	0.00000000000000	0.00000000000000	0.00000000000000	0.00000000000000	15.36636900000000	0.00000000000000	0.00000000000000	0.00000000000000	0.00000000000000	
3.96832100000000	-0.09838400000000	749.73306200000002	37.23737300000000	0.17861100000000	0.00000000000000	0.08565600000000	0.00000000000000	0.00000000000000	0.00000000000000	0.00000000000000	0.00000000000000	0.00000000000000	0.00000000000000	15.40960600000000	0.00000000000000	0.00000000000000	0.00000000000000	0.00000000000000	
3.96998600000000	-0.49770200000000	750.81305799999996	37.28227600000000	0.17773600000000	0.00000000000000	0.08559400000000	0.00000000000000	0.00000000000000	0.00000000000000	0.00000000000000	0.00000000000000	0.00000000000000	0.00000000000000	15.45306700000000	0.00000000000000	0.00000000000000	0.00000000000000	0.00000000000000	
3.97167700000000	-0.90307800000000	751.88530100000003	37.32817900000000	0.17685500000000	0.00000000000000	0.08553200000000	0.00000000000000	0.00000000000000	0.00000000000000	0.00000000000000	0.00000000000000	0.00000000000000	0.00000000000000	15.49667600000000	0.00000000000000	0.00000000000000	0.00000000000000	0.00000000000000	
3.97332300000000	-1.31436400000000	752.94990299999995	37.37494700000000	0.17597100000000	0.00000000000000	0.08546900000000	0.00000000000000	0.00000000000000	0.00000000000000	0.00000000000000	0.00000000000000	0.00000000000000	0.00000000000000	15.54035500000000	0.00000000000000	0.00000000000000	0.00000000000000	0.00000000000000	
3.97498800000000	-1.73138100000000	754.00703799999997	37.42244100000000	0.17508300000000	0.00000000000000	0.08540700000000	0.00000000000000	0.00000000000000	0.00000000000000	0.00000000000000	0.00000000000000	0.00000000000000	0.00000000000000	15.58402200000000	0.00000000000000	0.00000000000000	0.00000000000000	0.00000000000000	
3.97666700000000	-2.15392200000000	755.05693399999996	37.47052600000000	0.17419200000000	0.00000000000000	0.08534400000000	0.00000000000000	0.00000000000000	0.00000000000000	0.00000000000000	0.00000000000000	0.00000000000000	0.00000000000000	15.62759400000000	0.00000000000000	0.00000000000000	0.00000000000000	0.00000000000000	
3.97831700000000	-2.58175100000000	756.09987000000001	37.51906500000000	0.17330000000000	0.00000000000000	0.08528100000000	0.00000000000000	0.00000000000000	0.00000000000000	0.00000000000000	0.00000000000000	0.00000000000000	0.00000000000000	15.67098300000000	0.00000000000000	0.00000000000000	0.00000000000000	0.00000000000000	
3.97998200000000	-3.01460200000000	757.13617299999999	37.56792100000000	0.17240600000000	0.00000000000000	0.08521800000000	0.00000000000000	0.00000000000000	0.00000000000000	0.00000000000000	0.00000000000000	0.00000000000000	0.00000000000000	15.71409900000000	0.00000000000000	0.00000000000000	0.00000000000000	0.00000000000000	
3.98165600000000	-3.45218400000000	758.16620999999998	37.61696000000000	0.17151200000000	0.00000000000000	0.08515400000000	0.00000000000000	0.00000000000000	0.00000000000000	0.00000000000000	0.00000000000000	0.00000000000000	0.00000000000000	15.75685100000000	0.00000000000000	0.00000000000000	0.00000000000000	0.00000000000000	
3.98331500000000	-3.89418000000000	759.19038399999999	37.66604700000000	0.17061800000000	0.00000000000000	0.08509000000000	0.00000000000000	0.00000000000000	0.00000000000000	0.00000000000000	0.00000000000000	0.00000000000000	0.00000000000000	15.79914100000000	0.00000000000000	0.00000000000000	0.00000000000000	0.00000000000000	
3.98498800000000	-4.34024700000000	760.20912799999996	37.71504900000000	0.16972600000000	0.00000000000000	0.08502600000000	0.00000000000000	0.00000000000000	0.00000000000000	0.00000000000000	0.00000000000000	0.00000000000000	0.00000000000000	15.84087300000000	0.00000000000000	0.00000000000000	0.00000000000000	0.00000000000000	
3.98664900000000	-4.79002000000000	761.22289899999998	37.76383500000000	0.16883600000000	0.00000000000000	0.08496100000000	0.00000000000000	0.00000000000000	0.00000000000000	0.00000000000000	0.00000000000000	0.00000000000000	0.00000000000000	15.88194500000000	0.00000000000000	0.00000000000000	0.00000000000000	0.00000000000000	
3.98832300000000	-5.24311000000000	762.23217299999999	37.81227700000000	0.16794800000000	0.00000000000000	0.08489600000000	0.00000000000000	0.00000000000000	0.00000000000000	0.00000000000000	0.00000000000000	0.00000000000000	0.00000000000000	15.92225400000000	0.00000000000000	0.00000000000000	0.00000000000000	0.00000000000000	
3.98998900000000	-5.69911000000000	763.23743700000000	37.86024700000000	0.16706400000000	0.00000000000000	0.08483000000000	0.00000000000000	0.00000000000000	0.00000000000000	0.00000000000000	0.00000000000000	0.00000000000000	0.00000000000000	15.96169600000000	0.00000000000000	0.00000000000000	0.00000000000000	0.00000000000000	
3.99167400000000	-6.15759400000000	764.23918800000001	37.90762200000000	0.16618300000000	0.00000000000000	0.08476400000000	0.00000000000000	0.00000000000000	0.00000000000000	0.00000000000000	0.00000000000000	0.00000000000000	0.00000000000000	16.00016200000000	0.00000000000000	0.00000000000000	0.00000000000000	0.00000000000000	
3.99332000000000	-6.61811700000000	765.23791900000003	37.95427900000000	0.16530800000000	0.00000000000000	0.08469800000000	0.00000000000000	0.00000000000000	0.00000000000000	0.00000000000000	0.00000000000000	0.00000000000000	0.00000000000000	16.03754600000000	0.00000000000000	0.00000000000000	0.00000000000000	0.00000000000000	
3.99498200000000	-7.08022200000000	766.23412099999996	38.00010300000000	0.16443800000000	0.00000000000000	0.08463100000000	0.00000000000000	0.00000000000000	0.00000000000000	0.00000000000000	0.00000000000000	0.00000000000000	0.00000000000000	16.07373600000000	0.00000000000000	0.00000000000000	0.00000000000000	0.00000000000000	
3.99665000000000	-7.54343800000000	767.22827500000005	38.04497800000000	0.16357500000000	0.00000000000000	0.08456400000000	0.00000000000000	0.00000000000000	0.00000000000000	0.00000000000000	0.00000000000000	0.00000000000000	0.00000000000000	16.10862100000000	0.00000000000000	0.00000000000000	0.00000000000000	0.00000000000000	
3.99831600000000	-8.00728500000000	768.22084099999995	38.08879600000000	0.16271800000000	0.00000000000000	0.08449600000000	0.00000000000000	0.00000000000000	0.00000000000000	0.00000000000000	0.00000000000000	0.00000000000000	0.00000000000000	16.14209100000000	0.00000000000000	0.00000000000000	0.00000000000000	0.00000000000000	
